<mxfile host="app.diagrams.net" modified="2022-03-29T08:59:38.032Z" agent="5.0 (Windows NT 10.0; Win64; x64) AppleWebKit/537.36 (KHTML, like Gecko) Chrome/99.0.4844.84 Safari/537.36" etag="uxKXIRSZgmHBFI3rqMqf" version="17.2.4" type="github">
  <diagram id="C5RBs43oDa-KdzZeNtuy" name="Page-1">
    <mxGraphModel dx="1736" dy="1079" grid="1" gridSize="10" guides="1" tooltips="1" connect="1" arrows="1" fold="1" page="1" pageScale="1" pageWidth="827" pageHeight="1169" math="0" shadow="0">
      <root>
        <mxCell id="WIyWlLk6GJQsqaUBKTNV-0" />
        <mxCell id="WIyWlLk6GJQsqaUBKTNV-1" parent="WIyWlLk6GJQsqaUBKTNV-0" />
        <mxCell id="PsKFiLC34W7KuLc8Axxn-2" value="" style="edgeStyle=orthogonalEdgeStyle;rounded=0;orthogonalLoop=1;jettySize=auto;html=1;startArrow=none;" edge="1" parent="WIyWlLk6GJQsqaUBKTNV-1" source="PsKFiLC34W7KuLc8Axxn-0">
          <mxGeometry relative="1" as="geometry">
            <mxPoint x="397.41176470588243" y="110" as="targetPoint" />
          </mxGeometry>
        </mxCell>
        <mxCell id="fEXWOOUnEaRxqD7EzHem-0" value="Start" style="rounded=1;whiteSpace=wrap;html=1;fontSize=12;glass=0;strokeWidth=1;shadow=0;" parent="WIyWlLk6GJQsqaUBKTNV-1" vertex="1">
          <mxGeometry x="377.47" y="15" width="40" height="30" as="geometry" />
        </mxCell>
        <mxCell id="fEXWOOUnEaRxqD7EzHem-25" value="&lt;div style=&quot;color: rgb(102 , 136 , 204) ; font-family: &amp;#34;consolas&amp;#34; , &amp;#34;courier new&amp;#34; , monospace ; font-size: 15px ; line-height: 20px&quot;&gt;&lt;span style=&quot;background-color: rgb(255 , 255 , 255)&quot;&gt;&lt;span style=&quot;color: rgb(153 , 102 , 184) ; font-style: italic&quot;&gt;def&lt;/span&gt; &lt;span style=&quot;color: rgb(221 , 187 , 136)&quot;&gt;connection&lt;/span&gt;&lt;/span&gt;&lt;/div&gt;" style="rounded=1;whiteSpace=wrap;html=1;fontSize=12;glass=0;strokeWidth=1;shadow=0;" parent="WIyWlLk6GJQsqaUBKTNV-1" vertex="1">
          <mxGeometry x="560" y="140" width="130" height="30" as="geometry" />
        </mxCell>
        <mxCell id="fEXWOOUnEaRxqD7EzHem-31" style="edgeStyle=none;rounded=0;orthogonalLoop=1;jettySize=auto;html=1;exitX=1;exitY=0.25;exitDx=0;exitDy=0;fontSize=12;fontColor=#FF9408;" parent="WIyWlLk6GJQsqaUBKTNV-1" edge="1">
          <mxGeometry relative="1" as="geometry">
            <mxPoint x="443.47" y="420" as="sourcePoint" />
            <mxPoint x="443.47" y="420" as="targetPoint" />
          </mxGeometry>
        </mxCell>
        <mxCell id="fEXWOOUnEaRxqD7EzHem-35" value="&lt;div style=&quot;color: rgb(102 , 136 , 204) ; font-family: &amp;#34;consolas&amp;#34; , &amp;#34;courier new&amp;#34; , monospace ; font-size: 15px ; line-height: 20px&quot;&gt;&lt;span style=&quot;color: rgba(0 , 0 , 0 , 0) ; font-family: monospace ; font-size: 0px ; background-color: rgb(248 , 249 , 250)&quot;&gt;%3CmxGraphModel%3E%3Croot%3E%3CmxCell%20id%3D%220%22%2F%3E%3CmxCell%20id%3D%221%22%20parent%3D%220%22%2F%3E%3CmxCell%20id%3D%222%22%20value%3D%22%26lt%3Bdiv%20style%3D%26quot%3Bcolor%3A%20rgb(102%20%2C%20136%20%2C%20204)%20%3B%20font-family%3A%20%26amp%3B%2334%3Bconsolas%26amp%3B%2334%3B%20%2C%20%26amp%3B%2334%3Bcourier%20new%26amp%3B%2334%3B%20%2C%20monospace%20%3B%20font-size%3A%2015px%20%3B%20line-height%3A%2020px%26quot%3B%26gt%3B%26lt%3Bspan%20style%3D%26quot%3Bcolor%3A%20rgb(153%20%2C%20102%20%2C%20184)%20%3B%20font-style%3A%20italic%26quot%3B%26gt%3Bdef%26lt%3B%2Fspan%26gt%3B%26amp%3Bnbsp%3B%26lt%3Bspan%20style%3D%26quot%3Bcolor%3A%20rgb(221%20%2C%20187%20%2C%20136)%20%3B%20font-family%3A%20%26amp%3B%2334%3Bconsolas%26amp%3B%2334%3B%20%2C%20%26amp%3B%2334%3Bcourier%20new%26amp%3B%2334%3B%20%2C%20monospace%26quot%3B%26gt%3Bcheckorders%26lt%3B%2Fspan%26gt%3B%26lt%3B%2Fdiv%26gt%3B%22%20style%3D%22rounded%3D1%3BwhiteSpace%3Dwrap%3Bhtml%3D1%3BlabelBackgroundColor%3D%23FFFFFF%3BfontSize%3D12%3BfontColor%3D%23FF9408%3B%22%20vertex%3D%221%22%20parent%3D%221%22%3E%3CmxGeometry%20x%3D%22105%22%20y%3D%22820%22%20width%3D%22130%22%20height%3D%2250%22%20as%3D%22geometry%22%2F%3E%3C%2FmxCell%3E%3C%2Froot%3E%3C%2FmxGraphModel%3E&lt;/span&gt;&lt;span style=&quot;font-family: &amp;#34;consolas&amp;#34; , &amp;#34;courier new&amp;#34; , monospace ; color: rgb(153 , 102 , 184) ; font-style: italic&quot;&gt;def&lt;/span&gt;&lt;span style=&quot;font-family: &amp;#34;consolas&amp;#34; , &amp;#34;courier new&amp;#34; , monospace&quot;&gt; &lt;/span&gt;&lt;span style=&quot;font-family: &amp;#34;consolas&amp;#34; , &amp;#34;courier new&amp;#34; , monospace ; color: rgb(221 , 187 , 136)&quot;&gt;pacifier&lt;/span&gt;&lt;/div&gt;" style="rounded=1;whiteSpace=wrap;html=1;labelBackgroundColor=#FFFFFF;fontSize=12;fontColor=#FF9408;" parent="WIyWlLk6GJQsqaUBKTNV-1" vertex="1">
          <mxGeometry x="273.47" y="635" width="110" height="35" as="geometry" />
        </mxCell>
        <mxCell id="fEXWOOUnEaRxqD7EzHem-45" value="&lt;div style=&quot;color: rgb(102 , 136 , 204) ; font-family: &amp;#34;consolas&amp;#34; , &amp;#34;courier new&amp;#34; , monospace ; font-size: 15px ; line-height: 20px&quot;&gt;&lt;div style=&quot;font-family: &amp;#34;consolas&amp;#34; , &amp;#34;courier new&amp;#34; , monospace ; line-height: 20px&quot;&gt;&lt;span style=&quot;color: rgb(153 , 102 , 184) ; font-style: italic&quot;&gt;def&lt;/span&gt; &lt;span style=&quot;color: rgb(221 , 187 , 136)&quot;&gt;is_in_range&lt;/span&gt;&lt;/div&gt;&lt;/div&gt;" style="rounded=1;whiteSpace=wrap;html=1;labelBackgroundColor=#FFFFFF;fontSize=12;fontColor=#FF9408;" parent="WIyWlLk6GJQsqaUBKTNV-1" vertex="1">
          <mxGeometry x="93.47" y="635" width="130" height="35" as="geometry" />
        </mxCell>
        <mxCell id="fEXWOOUnEaRxqD7EzHem-47" value="&lt;div style=&quot;color: rgb(102 , 136 , 204) ; font-family: &amp;#34;consolas&amp;#34; , &amp;#34;courier new&amp;#34; , monospace ; font-size: 15px ; line-height: 20px&quot;&gt;&lt;div style=&quot;font-family: &amp;#34;consolas&amp;#34; , &amp;#34;courier new&amp;#34; , monospace ; line-height: 20px&quot;&gt;&lt;span style=&quot;color: rgb(153 , 102 , 184) ; font-style: italic&quot;&gt;def&lt;/span&gt; &lt;span style=&quot;color: rgb(221 , 187 , 136)&quot;&gt;bonus&lt;/span&gt;&lt;/div&gt;&lt;/div&gt;" style="rounded=1;whiteSpace=wrap;html=1;labelBackgroundColor=#FFFFFF;fontSize=12;fontColor=#FF9408;" parent="WIyWlLk6GJQsqaUBKTNV-1" vertex="1">
          <mxGeometry x="289.72" y="685" width="93.75" height="35" as="geometry" />
        </mxCell>
        <mxCell id="fEXWOOUnEaRxqD7EzHem-49" value="&lt;div style=&quot;color: rgb(102 , 136 , 204) ; font-family: &amp;#34;consolas&amp;#34; , &amp;#34;courier new&amp;#34; , monospace ; font-size: 15px ; line-height: 20px&quot;&gt;&lt;div style=&quot;font-family: &amp;#34;consolas&amp;#34; , &amp;#34;courier new&amp;#34; , monospace ; line-height: 20px&quot;&gt;&lt;span style=&quot;color: rgb(153 , 102 , 184) ; font-style: italic&quot;&gt;def&lt;/span&gt; &lt;span style=&quot;color: rgb(221 , 187 , 136)&quot;&gt;is_in_range&lt;/span&gt;&lt;/div&gt;&lt;/div&gt;" style="rounded=1;whiteSpace=wrap;html=1;labelBackgroundColor=#FFFFFF;fontSize=12;fontColor=#FF9408;" parent="WIyWlLk6GJQsqaUBKTNV-1" vertex="1">
          <mxGeometry x="93.47" y="685" width="130" height="35" as="geometry" />
        </mxCell>
        <mxCell id="fEXWOOUnEaRxqD7EzHem-51" value="&lt;div style=&quot;color: rgb(102 , 136 , 204) ; font-family: &amp;#34;consolas&amp;#34; , &amp;#34;courier new&amp;#34; , monospace ; font-size: 15px ; line-height: 20px&quot;&gt;&lt;div style=&quot;font-family: &amp;#34;consolas&amp;#34; , &amp;#34;courier new&amp;#34; , monospace ; line-height: 20px&quot;&gt;&lt;span style=&quot;color: rgb(153 , 102 , 184) ; font-style: italic&quot;&gt;def&lt;/span&gt; &lt;span style=&quot;color: rgb(221 , 187 , 136)&quot;&gt;feed&lt;/span&gt;&lt;/div&gt;&lt;/div&gt;" style="rounded=1;whiteSpace=wrap;html=1;labelBackgroundColor=#FFFFFF;fontSize=12;fontColor=#FF9408;" parent="WIyWlLk6GJQsqaUBKTNV-1" vertex="1">
          <mxGeometry x="289.72" y="735" width="93.75" height="35" as="geometry" />
        </mxCell>
        <mxCell id="fEXWOOUnEaRxqD7EzHem-53" value="&lt;div style=&quot;color: rgb(102 , 136 , 204) ; font-family: &amp;#34;consolas&amp;#34; , &amp;#34;courier new&amp;#34; , monospace ; font-size: 15px ; line-height: 20px&quot;&gt;&lt;div style=&quot;font-family: &amp;#34;consolas&amp;#34; , &amp;#34;courier new&amp;#34; , monospace ; line-height: 20px&quot;&gt;&lt;div style=&quot;font-family: &amp;#34;consolas&amp;#34; , &amp;#34;courier new&amp;#34; , monospace ; line-height: 20px&quot;&gt;&lt;span style=&quot;color: rgb(153 , 102 , 184) ; font-style: italic&quot;&gt;def&lt;/span&gt; &lt;span style=&quot;color: rgb(221 , 187 , 136)&quot;&gt;is_entity_at&lt;/span&gt;&lt;/div&gt;&lt;/div&gt;&lt;/div&gt;" style="rounded=1;whiteSpace=wrap;html=1;labelBackgroundColor=#FFFFFF;fontSize=12;fontColor=#FF9408;" parent="WIyWlLk6GJQsqaUBKTNV-1" vertex="1">
          <mxGeometry x="93.47" y="735" width="140" height="35" as="geometry" />
        </mxCell>
        <mxCell id="fEXWOOUnEaRxqD7EzHem-55" value="&lt;div style=&quot;color: rgb(102 , 136 , 204) ; font-family: &amp;#34;consolas&amp;#34; , &amp;#34;courier new&amp;#34; , monospace ; font-size: 15px ; line-height: 20px&quot;&gt;&lt;div style=&quot;font-family: &amp;#34;consolas&amp;#34; , &amp;#34;courier new&amp;#34; , monospace ; line-height: 20px&quot;&gt;&lt;div style=&quot;font-family: &amp;#34;consolas&amp;#34; , &amp;#34;courier new&amp;#34; , monospace ; line-height: 20px&quot;&gt;&lt;span style=&quot;color: rgb(153 , 102 , 184) ; font-style: italic&quot;&gt;def&lt;/span&gt; &lt;span style=&quot;color: rgb(221 , 187 , 136)&quot;&gt;fight&lt;/span&gt;&lt;/div&gt;&lt;/div&gt;&lt;/div&gt;" style="rounded=1;whiteSpace=wrap;html=1;labelBackgroundColor=#FFFFFF;fontSize=12;fontColor=#FF9408;" parent="WIyWlLk6GJQsqaUBKTNV-1" vertex="1">
          <mxGeometry x="289.72" y="785" width="93.75" height="35" as="geometry" />
        </mxCell>
        <mxCell id="fEXWOOUnEaRxqD7EzHem-58" value="&lt;div style=&quot;color: rgb(102 , 136 , 204) ; font-family: &amp;#34;consolas&amp;#34; , &amp;#34;courier new&amp;#34; , monospace ; font-size: 15px ; line-height: 20px&quot;&gt;&lt;div style=&quot;font-family: &amp;#34;consolas&amp;#34; , &amp;#34;courier new&amp;#34; , monospace ; line-height: 20px&quot;&gt;&lt;div style=&quot;font-family: &amp;#34;consolas&amp;#34; , &amp;#34;courier new&amp;#34; , monospace ; line-height: 20px&quot;&gt;&lt;span style=&quot;color: rgb(153 , 102 , 184) ; font-style: italic&quot;&gt;def&lt;/span&gt; &lt;span style=&quot;color: rgb(221 , 187 , 136)&quot;&gt;is_entity_at&lt;/span&gt;&lt;/div&gt;&lt;/div&gt;&lt;/div&gt;" style="rounded=1;whiteSpace=wrap;html=1;labelBackgroundColor=#FFFFFF;fontSize=12;fontColor=#FF9408;" parent="WIyWlLk6GJQsqaUBKTNV-1" vertex="1">
          <mxGeometry x="83.59" y="785" width="150" height="35" as="geometry" />
        </mxCell>
        <mxCell id="fEXWOOUnEaRxqD7EzHem-59" value="&lt;div style=&quot;color: rgb(102 , 136 , 204) ; font-family: &amp;#34;consolas&amp;#34; , &amp;#34;courier new&amp;#34; , monospace ; font-size: 15px ; line-height: 20px&quot;&gt;&lt;div style=&quot;font-family: &amp;#34;consolas&amp;#34; , &amp;#34;courier new&amp;#34; , monospace ; line-height: 20px&quot;&gt;&lt;div style=&quot;font-family: &amp;#34;consolas&amp;#34; , &amp;#34;courier new&amp;#34; , monospace ; line-height: 20px&quot;&gt;&lt;div style=&quot;font-family: &amp;#34;consolas&amp;#34; , &amp;#34;courier new&amp;#34; , monospace ; line-height: 20px&quot;&gt;&lt;span style=&quot;color: rgb(153 , 102 , 184) ; font-style: italic&quot;&gt;def&lt;/span&gt; &lt;span style=&quot;color: rgb(221 , 187 , 136)&quot;&gt;move&lt;/span&gt;&lt;/div&gt;&lt;/div&gt;&lt;/div&gt;&lt;/div&gt;" style="rounded=1;whiteSpace=wrap;html=1;labelBackgroundColor=#FFFFFF;fontSize=12;fontColor=#FF9408;" parent="WIyWlLk6GJQsqaUBKTNV-1" vertex="1">
          <mxGeometry x="289.84000000000003" y="895" width="93.75" height="35" as="geometry" />
        </mxCell>
        <mxCell id="fEXWOOUnEaRxqD7EzHem-62" value="&lt;div style=&quot;color: rgb(102 , 136 , 204) ; font-family: &amp;#34;consolas&amp;#34; , &amp;#34;courier new&amp;#34; , monospace ; font-size: 15px ; line-height: 20px&quot;&gt;&lt;div style=&quot;font-family: &amp;#34;consolas&amp;#34; , &amp;#34;courier new&amp;#34; , monospace ; line-height: 20px&quot;&gt;&lt;div style=&quot;font-family: &amp;#34;consolas&amp;#34; , &amp;#34;courier new&amp;#34; , monospace ; line-height: 20px&quot;&gt;&lt;span style=&quot;color: rgb(153 , 102 , 184) ; font-style: italic&quot;&gt;def&lt;/span&gt; &lt;span style=&quot;color: rgb(221 , 187 , 136)&quot;&gt;is_entity_at&lt;/span&gt;&lt;/div&gt;&lt;/div&gt;&lt;/div&gt;" style="rounded=1;whiteSpace=wrap;html=1;labelBackgroundColor=#FFFFFF;fontSize=12;fontColor=#FF9408;" parent="WIyWlLk6GJQsqaUBKTNV-1" vertex="1">
          <mxGeometry x="63.47" y="895" width="150" height="35" as="geometry" />
        </mxCell>
        <mxCell id="fEXWOOUnEaRxqD7EzHem-63" value="&lt;div style=&quot;color: rgb(102 , 136 , 204) ; font-family: &amp;#34;consolas&amp;#34; , &amp;#34;courier new&amp;#34; , monospace ; font-size: 15px ; line-height: 20px&quot;&gt;&lt;span style=&quot;background-color: rgb(255 , 255 , 255)&quot;&gt;&lt;span style=&quot;color: rgb(221 , 187 , 136)&quot;&gt;game_loop&lt;/span&gt;&lt;/span&gt;&lt;/div&gt;" style="rounded=1;whiteSpace=wrap;html=1;fontSize=12;glass=0;strokeWidth=1;shadow=0;" parent="WIyWlLk6GJQsqaUBKTNV-1" vertex="1">
          <mxGeometry x="360.27000000000004" y="300" width="120" height="30" as="geometry" />
        </mxCell>
        <mxCell id="fEXWOOUnEaRxqD7EzHem-149" style="edgeStyle=orthogonalEdgeStyle;rounded=1;orthogonalLoop=1;jettySize=auto;html=1;fontFamily=Courier New;fontSize=12;fontColor=#DDBB88;exitX=0.5;exitY=1;exitDx=0;exitDy=0;strokeWidth=3;strokeColor=#FF45A8;" parent="WIyWlLk6GJQsqaUBKTNV-1" source="fEXWOOUnEaRxqD7EzHem-87" target="fEXWOOUnEaRxqD7EzHem-63" edge="1">
          <mxGeometry relative="1" as="geometry">
            <mxPoint x="357.47" y="355" as="targetPoint" />
            <Array as="points">
              <mxPoint x="416" y="960" />
              <mxPoint x="44" y="960" />
              <mxPoint x="44" y="315" />
            </Array>
            <mxPoint x="416" y="920" as="sourcePoint" />
          </mxGeometry>
        </mxCell>
        <mxCell id="fEXWOOUnEaRxqD7EzHem-64" value="&lt;div style=&quot;font-family: &amp;#34;consolas&amp;#34; , &amp;#34;courier new&amp;#34; , monospace ; font-size: 15px ; line-height: 20px&quot;&gt;&lt;span style=&quot;background-color: rgb(255 , 255 , 255)&quot;&gt;&lt;span style=&quot;color: rgb(153 , 102 , 184) ; font-style: italic&quot;&gt;def&lt;/span&gt;&lt;font color=&quot;#6688cc&quot;&gt;&amp;nbsp;&lt;/font&gt;&lt;font color=&quot;#ddbb88&quot;&gt;end_&lt;/font&gt;&lt;span style=&quot;color: rgb(221 , 187 , 136)&quot;&gt;tu&lt;/span&gt;&lt;font color=&quot;#ddbb88&quot;&gt;rn&lt;/font&gt;&lt;/span&gt;&lt;/div&gt;" style="rounded=1;whiteSpace=wrap;html=1;fontSize=12;glass=0;strokeWidth=1;shadow=0;" parent="WIyWlLk6GJQsqaUBKTNV-1" vertex="1">
          <mxGeometry x="343.47" y="1030" width="120" height="30" as="geometry" />
        </mxCell>
        <mxCell id="fEXWOOUnEaRxqD7EzHem-82" value="&lt;div style=&quot;color: rgb(102 , 136 , 204) ; font-family: &amp;#34;consolas&amp;#34; , &amp;#34;courier new&amp;#34; , monospace ; font-size: 15px ; line-height: 20px&quot;&gt;&lt;div style=&quot;font-family: &amp;#34;consolas&amp;#34; , &amp;#34;courier new&amp;#34; , monospace ; line-height: 20px&quot;&gt;&lt;div style=&quot;font-family: &amp;#34;consolas&amp;#34; , &amp;#34;courier new&amp;#34; , monospace ; line-height: 20px&quot;&gt;&lt;div style=&quot;font-family: &amp;#34;consolas&amp;#34; , &amp;#34;courier new&amp;#34; , monospace ; line-height: 20px&quot;&gt;&lt;span style=&quot;color: rgb(153 , 102 , 184) ; font-style: italic&quot;&gt;def&lt;/span&gt; &lt;span style=&quot;color: rgb(221 , 187 , 136)&quot;&gt;being_human&lt;/span&gt;&lt;/div&gt;&lt;/div&gt;&lt;/div&gt;&lt;/div&gt;" style="rounded=1;whiteSpace=wrap;html=1;labelBackgroundColor=#FFFFFF;fontSize=12;fontColor=#FF9408;" parent="WIyWlLk6GJQsqaUBKTNV-1" vertex="1">
          <mxGeometry x="63.47" y="842.5" width="130" height="35" as="geometry" />
        </mxCell>
        <mxCell id="fEXWOOUnEaRxqD7EzHem-90" style="edgeStyle=orthogonalEdgeStyle;rounded=0;orthogonalLoop=1;jettySize=auto;html=1;exitX=0.5;exitY=1;exitDx=0;exitDy=0;entryX=1;entryY=0.5;entryDx=0;entryDy=0;fontFamily=Courier New;fontSize=12;fontColor=#DDBB88;" parent="WIyWlLk6GJQsqaUBKTNV-1" source="fEXWOOUnEaRxqD7EzHem-87" target="fEXWOOUnEaRxqD7EzHem-35" edge="1">
          <mxGeometry relative="1" as="geometry" />
        </mxCell>
        <mxCell id="fEXWOOUnEaRxqD7EzHem-93" style="edgeStyle=orthogonalEdgeStyle;rounded=0;orthogonalLoop=1;jettySize=auto;html=1;exitX=0.5;exitY=1;exitDx=0;exitDy=0;entryX=1;entryY=0.5;entryDx=0;entryDy=0;fontFamily=Courier New;fontSize=12;fontColor=#DDBB88;" parent="WIyWlLk6GJQsqaUBKTNV-1" source="fEXWOOUnEaRxqD7EzHem-87" target="fEXWOOUnEaRxqD7EzHem-47" edge="1">
          <mxGeometry relative="1" as="geometry" />
        </mxCell>
        <mxCell id="fEXWOOUnEaRxqD7EzHem-97" style="edgeStyle=orthogonalEdgeStyle;rounded=0;orthogonalLoop=1;jettySize=auto;html=1;exitX=0.5;exitY=1;exitDx=0;exitDy=0;entryX=1;entryY=0.5;entryDx=0;entryDy=0;fontFamily=Courier New;fontSize=12;fontColor=#DDBB88;" parent="WIyWlLk6GJQsqaUBKTNV-1" source="fEXWOOUnEaRxqD7EzHem-87" target="fEXWOOUnEaRxqD7EzHem-51" edge="1">
          <mxGeometry relative="1" as="geometry" />
        </mxCell>
        <mxCell id="fEXWOOUnEaRxqD7EzHem-98" style="edgeStyle=orthogonalEdgeStyle;rounded=0;orthogonalLoop=1;jettySize=auto;html=1;exitX=0.5;exitY=1;exitDx=0;exitDy=0;entryX=1;entryY=0.5;entryDx=0;entryDy=0;fontFamily=Courier New;fontSize=12;fontColor=#DDBB88;" parent="WIyWlLk6GJQsqaUBKTNV-1" source="fEXWOOUnEaRxqD7EzHem-87" target="fEXWOOUnEaRxqD7EzHem-55" edge="1">
          <mxGeometry relative="1" as="geometry" />
        </mxCell>
        <mxCell id="fEXWOOUnEaRxqD7EzHem-102" style="edgeStyle=orthogonalEdgeStyle;rounded=0;orthogonalLoop=1;jettySize=auto;html=1;exitX=0.5;exitY=1;exitDx=0;exitDy=0;entryX=1;entryY=0.5;entryDx=0;entryDy=0;fontFamily=Courier New;fontSize=12;fontColor=#DDBB88;" parent="WIyWlLk6GJQsqaUBKTNV-1" source="fEXWOOUnEaRxqD7EzHem-87" target="fEXWOOUnEaRxqD7EzHem-101" edge="1">
          <mxGeometry relative="1" as="geometry" />
        </mxCell>
        <mxCell id="fEXWOOUnEaRxqD7EzHem-103" style="edgeStyle=orthogonalEdgeStyle;rounded=0;orthogonalLoop=1;jettySize=auto;html=1;exitX=0.5;exitY=1;exitDx=0;exitDy=0;entryX=1;entryY=0.5;entryDx=0;entryDy=0;fontFamily=Courier New;fontSize=12;fontColor=#DDBB88;" parent="WIyWlLk6GJQsqaUBKTNV-1" source="fEXWOOUnEaRxqD7EzHem-87" target="fEXWOOUnEaRxqD7EzHem-59" edge="1">
          <mxGeometry relative="1" as="geometry" />
        </mxCell>
        <mxCell id="fEXWOOUnEaRxqD7EzHem-128" style="edgeStyle=orthogonalEdgeStyle;rounded=0;orthogonalLoop=1;jettySize=auto;html=1;exitX=0.75;exitY=1;exitDx=0;exitDy=0;entryX=0;entryY=0.5;entryDx=0;entryDy=0;fontFamily=Courier New;fontSize=12;fontColor=#DDBB88;" parent="WIyWlLk6GJQsqaUBKTNV-1" source="fEXWOOUnEaRxqD7EzHem-87" target="fEXWOOUnEaRxqD7EzHem-108" edge="1">
          <mxGeometry relative="1" as="geometry" />
        </mxCell>
        <mxCell id="fEXWOOUnEaRxqD7EzHem-147" style="edgeStyle=orthogonalEdgeStyle;rounded=0;orthogonalLoop=1;jettySize=auto;html=1;exitX=0.5;exitY=1;exitDx=0;exitDy=0;entryX=0;entryY=0.5;entryDx=0;entryDy=0;fontFamily=Courier New;fontSize=12;fontColor=#DDBB88;" parent="WIyWlLk6GJQsqaUBKTNV-1" source="fEXWOOUnEaRxqD7EzHem-87" target="fEXWOOUnEaRxqD7EzHem-110" edge="1">
          <mxGeometry relative="1" as="geometry" />
        </mxCell>
        <mxCell id="fEXWOOUnEaRxqD7EzHem-148" style="edgeStyle=orthogonalEdgeStyle;rounded=0;orthogonalLoop=1;jettySize=auto;html=1;exitX=0.5;exitY=1;exitDx=0;exitDy=0;entryX=0;entryY=0.5;entryDx=0;entryDy=0;fontFamily=Courier New;fontSize=12;fontColor=#DDBB88;" parent="WIyWlLk6GJQsqaUBKTNV-1" source="fEXWOOUnEaRxqD7EzHem-87" target="fEXWOOUnEaRxqD7EzHem-112" edge="1">
          <mxGeometry relative="1" as="geometry" />
        </mxCell>
        <mxCell id="fEXWOOUnEaRxqD7EzHem-152" style="edgeStyle=orthogonalEdgeStyle;rounded=0;orthogonalLoop=1;jettySize=auto;html=1;exitX=0.5;exitY=1;exitDx=0;exitDy=0;entryX=0;entryY=0.5;entryDx=0;entryDy=0;fontFamily=Courier New;fontSize=12;fontColor=#DDBB88;" parent="WIyWlLk6GJQsqaUBKTNV-1" source="fEXWOOUnEaRxqD7EzHem-87" target="fEXWOOUnEaRxqD7EzHem-114" edge="1">
          <mxGeometry relative="1" as="geometry" />
        </mxCell>
        <mxCell id="fEXWOOUnEaRxqD7EzHem-153" style="edgeStyle=orthogonalEdgeStyle;rounded=0;orthogonalLoop=1;jettySize=auto;html=1;exitX=0.5;exitY=1;exitDx=0;exitDy=0;entryX=0;entryY=0.5;entryDx=0;entryDy=0;fontFamily=Courier New;fontSize=12;fontColor=#DDBB88;" parent="WIyWlLk6GJQsqaUBKTNV-1" source="fEXWOOUnEaRxqD7EzHem-87" target="fEXWOOUnEaRxqD7EzHem-116" edge="1">
          <mxGeometry relative="1" as="geometry" />
        </mxCell>
        <mxCell id="fEXWOOUnEaRxqD7EzHem-155" style="edgeStyle=orthogonalEdgeStyle;rounded=0;orthogonalLoop=1;jettySize=auto;html=1;exitX=0.5;exitY=1;exitDx=0;exitDy=0;entryX=0;entryY=0.5;entryDx=0;entryDy=0;fontFamily=Courier New;fontSize=12;fontColor=#DDBB88;" parent="WIyWlLk6GJQsqaUBKTNV-1" source="fEXWOOUnEaRxqD7EzHem-87" target="fEXWOOUnEaRxqD7EzHem-126" edge="1">
          <mxGeometry relative="1" as="geometry" />
        </mxCell>
        <mxCell id="fEXWOOUnEaRxqD7EzHem-156" style="edgeStyle=orthogonalEdgeStyle;rounded=0;orthogonalLoop=1;jettySize=auto;html=1;exitX=0.5;exitY=1;exitDx=0;exitDy=0;entryX=0;entryY=0.5;entryDx=0;entryDy=0;fontFamily=Courier New;fontSize=12;fontColor=#DDBB88;" parent="WIyWlLk6GJQsqaUBKTNV-1" source="fEXWOOUnEaRxqD7EzHem-87" target="fEXWOOUnEaRxqD7EzHem-118" edge="1">
          <mxGeometry relative="1" as="geometry" />
        </mxCell>
        <mxCell id="fEXWOOUnEaRxqD7EzHem-87" value="&lt;span style=&quot;font-family: &amp;#34;consolas&amp;#34; , &amp;#34;courier new&amp;#34; , monospace ; font-size: 15px ; color: rgb(221 , 187 , 136)&quot;&gt;orders_manager()&lt;/span&gt;" style="rounded=1;whiteSpace=wrap;html=1;labelBackgroundColor=#FFFFFF;fontSize=12;fontColor=#FF9408;" parent="WIyWlLk6GJQsqaUBKTNV-1" vertex="1">
          <mxGeometry x="339.79" y="460" width="153" height="50" as="geometry" />
        </mxCell>
        <mxCell id="fEXWOOUnEaRxqD7EzHem-92" value="" style="shape=flexArrow;endArrow=classic;startArrow=classic;html=1;rounded=0;fontFamily=Courier New;fontSize=12;fontColor=#DDBB88;exitX=1;exitY=0.5;exitDx=0;exitDy=0;entryX=0;entryY=0.5;entryDx=0;entryDy=0;width=7.058823529411765;startSize=3.3843137254901965;startWidth=8.212226066897347;endWidth=8.212226066897347;endSize=4.965354330708662;" parent="WIyWlLk6GJQsqaUBKTNV-1" source="fEXWOOUnEaRxqD7EzHem-45" target="fEXWOOUnEaRxqD7EzHem-35" edge="1">
          <mxGeometry width="100" height="100" relative="1" as="geometry">
            <mxPoint x="123.47" y="605" as="sourcePoint" />
            <mxPoint x="223.46999999999997" y="505" as="targetPoint" />
          </mxGeometry>
        </mxCell>
        <mxCell id="fEXWOOUnEaRxqD7EzHem-94" value="" style="shape=flexArrow;endArrow=classic;startArrow=classic;html=1;rounded=0;fontFamily=Courier New;fontSize=12;fontColor=#DDBB88;exitX=1;exitY=0.5;exitDx=0;exitDy=0;entryX=0;entryY=0.5;entryDx=0;entryDy=0;width=7.058823529411765;startSize=3.3843137254901965;startWidth=8.212226066897347;endWidth=8.212226066897347;endSize=4.965354330708662;" parent="WIyWlLk6GJQsqaUBKTNV-1" source="fEXWOOUnEaRxqD7EzHem-49" target="fEXWOOUnEaRxqD7EzHem-47" edge="1">
          <mxGeometry width="100" height="100" relative="1" as="geometry">
            <mxPoint x="223.46999999999997" y="702.1700000000001" as="sourcePoint" />
            <mxPoint x="279.72" y="702.1700000000001" as="targetPoint" />
          </mxGeometry>
        </mxCell>
        <mxCell id="fEXWOOUnEaRxqD7EzHem-96" value="" style="shape=flexArrow;endArrow=classic;startArrow=classic;html=1;rounded=0;fontFamily=Courier New;fontSize=12;fontColor=#DDBB88;exitX=1;exitY=0.5;exitDx=0;exitDy=0;entryX=-0.006;entryY=0.466;entryDx=0;entryDy=0;width=7.058823529411765;startSize=3.3843137254901965;startWidth=8.212226066897347;endWidth=8.212226066897347;endSize=4.965354330708662;entryPerimeter=0;" parent="WIyWlLk6GJQsqaUBKTNV-1" source="fEXWOOUnEaRxqD7EzHem-53" target="fEXWOOUnEaRxqD7EzHem-51" edge="1">
          <mxGeometry width="100" height="100" relative="1" as="geometry">
            <mxPoint x="203.46999999999997" y="752.27" as="sourcePoint" />
            <mxPoint x="269.72" y="752.27" as="targetPoint" />
          </mxGeometry>
        </mxCell>
        <mxCell id="fEXWOOUnEaRxqD7EzHem-99" value="" style="shape=flexArrow;endArrow=classic;startArrow=classic;html=1;rounded=0;fontFamily=Courier New;fontSize=12;fontColor=#DDBB88;exitX=1;exitY=0.5;exitDx=0;exitDy=0;entryX=0;entryY=0.5;entryDx=0;entryDy=0;width=7.058823529411765;startSize=3.3843137254901965;startWidth=8.212226066897347;endWidth=8.212226066897347;endSize=4.965354330708662;" parent="WIyWlLk6GJQsqaUBKTNV-1" source="fEXWOOUnEaRxqD7EzHem-58" target="fEXWOOUnEaRxqD7EzHem-55" edge="1">
          <mxGeometry width="100" height="100" relative="1" as="geometry">
            <mxPoint x="233.58999999999997" y="803.0999999999999" as="sourcePoint" />
            <mxPoint x="279.27750000000003" y="801.9099999999999" as="targetPoint" />
          </mxGeometry>
        </mxCell>
        <mxCell id="fEXWOOUnEaRxqD7EzHem-100" value="" style="shape=flexArrow;endArrow=classic;startArrow=classic;html=1;rounded=0;fontFamily=Courier New;fontSize=12;fontColor=#DDBB88;exitX=1;exitY=0.5;exitDx=0;exitDy=0;entryX=0;entryY=0.5;entryDx=0;entryDy=0;width=7.058823529411765;startSize=3.3843137254901965;startWidth=8.212226066897347;endWidth=8.212226066897347;endSize=4.965354330708662;" parent="WIyWlLk6GJQsqaUBKTNV-1" source="fEXWOOUnEaRxqD7EzHem-62" target="fEXWOOUnEaRxqD7EzHem-59" edge="1">
          <mxGeometry width="100" height="100" relative="1" as="geometry">
            <mxPoint x="190.59999999999988" y="1042.22" as="sourcePoint" />
            <mxPoint x="236.72999999999996" y="1042.22" as="targetPoint" />
          </mxGeometry>
        </mxCell>
        <mxCell id="fEXWOOUnEaRxqD7EzHem-101" value="&lt;div style=&quot;font-family: &amp;#34;consolas&amp;#34; , &amp;#34;courier new&amp;#34; , monospace ; font-size: 15px ; line-height: 20px&quot;&gt;&lt;span style=&quot;background-color: rgb(255 , 255 , 255)&quot;&gt;&lt;span style=&quot;color: rgb(153 , 102 , 184) ; font-style: italic&quot;&gt;def&lt;/span&gt;&lt;font color=&quot;#6688cc&quot;&gt;&amp;nbsp;&lt;/font&gt;&lt;font color=&quot;#ddbb88&quot;&gt;check_Energy&lt;/font&gt;&lt;/span&gt;&lt;/div&gt;" style="rounded=1;whiteSpace=wrap;html=1;fontSize=12;glass=0;strokeWidth=1;shadow=0;" parent="WIyWlLk6GJQsqaUBKTNV-1" vertex="1">
          <mxGeometry x="243.46999999999997" y="845" width="140.12" height="30" as="geometry" />
        </mxCell>
        <mxCell id="fEXWOOUnEaRxqD7EzHem-106" value="" style="shape=flexArrow;endArrow=classic;startArrow=classic;html=1;rounded=0;fontFamily=Courier New;fontSize=12;fontColor=#DDBB88;exitX=1;exitY=0.5;exitDx=0;exitDy=0;entryX=0;entryY=0.5;entryDx=0;entryDy=0;width=7.058823529411765;startSize=3.3843137254901965;startWidth=8.212226066897347;endWidth=8.212226066897347;endSize=4.965354330708662;" parent="WIyWlLk6GJQsqaUBKTNV-1" source="fEXWOOUnEaRxqD7EzHem-82" target="fEXWOOUnEaRxqD7EzHem-101" edge="1">
          <mxGeometry width="100" height="100" relative="1" as="geometry">
            <mxPoint x="183.46999999999989" y="835" as="sourcePoint" />
            <mxPoint x="239.60000000000002" y="835" as="targetPoint" />
          </mxGeometry>
        </mxCell>
        <mxCell id="fEXWOOUnEaRxqD7EzHem-107" style="edgeStyle=none;rounded=0;orthogonalLoop=1;jettySize=auto;html=1;exitX=0.5;exitY=1;exitDx=0;exitDy=0;entryX=0.5;entryY=0;entryDx=0;entryDy=0;fontSize=12;fontColor=#FF9408;" parent="WIyWlLk6GJQsqaUBKTNV-1" source="fEXWOOUnEaRxqD7EzHem-108" target="fEXWOOUnEaRxqD7EzHem-109" edge="1">
          <mxGeometry relative="1" as="geometry" />
        </mxCell>
        <mxCell id="fEXWOOUnEaRxqD7EzHem-108" value="&lt;div style=&quot;color: rgb(102 , 136 , 204) ; font-family: &amp;#34;consolas&amp;#34; , &amp;#34;courier new&amp;#34; , monospace ; font-size: 15px ; line-height: 20px&quot;&gt;&lt;span style=&quot;color: rgb(153 , 102 , 184) ; font-style: italic&quot;&gt;def&lt;/span&gt; &lt;span style=&quot;color: rgb(221 , 187 , 136)&quot;&gt;netcut&lt;/span&gt;&lt;/div&gt;" style="rounded=1;whiteSpace=wrap;html=1;labelBackgroundColor=#FFFFFF;fontSize=12;fontColor=#FF9408;" parent="WIyWlLk6GJQsqaUBKTNV-1" vertex="1">
          <mxGeometry x="477.22" y="530" width="102.5" height="35" as="geometry" />
        </mxCell>
        <mxCell id="PsKFiLC34W7KuLc8Axxn-14" style="edgeStyle=orthogonalEdgeStyle;rounded=0;orthogonalLoop=1;jettySize=auto;html=1;exitX=0;exitY=0.5;exitDx=0;exitDy=0;entryX=0.599;entryY=0.991;entryDx=0;entryDy=0;entryPerimeter=0;strokeColor=#17060F;strokeWidth=1;" edge="1" parent="WIyWlLk6GJQsqaUBKTNV-1" source="fEXWOOUnEaRxqD7EzHem-109" target="fEXWOOUnEaRxqD7EzHem-87">
          <mxGeometry relative="1" as="geometry" />
        </mxCell>
        <mxCell id="fEXWOOUnEaRxqD7EzHem-109" value="&lt;div style=&quot;color: rgb(102 , 136 , 204) ; font-family: &amp;#34;consolas&amp;#34; , &amp;#34;courier new&amp;#34; , monospace ; font-size: 15px ; line-height: 20px&quot;&gt;&lt;span style=&quot;color: rgb(153 , 102 , 184) ; font-style: italic&quot;&gt;def&lt;/span&gt;&amp;nbsp;&lt;span style=&quot;color: rgb(221 , 187 , 136) ; font-family: &amp;#34;consolas&amp;#34; , &amp;#34;courier new&amp;#34; , monospace&quot;&gt;checkorders&lt;/span&gt;&lt;/div&gt;" style="rounded=1;whiteSpace=wrap;html=1;labelBackgroundColor=#FFFFFF;fontSize=12;fontColor=#FF9408;" parent="WIyWlLk6GJQsqaUBKTNV-1" vertex="1">
          <mxGeometry x="463.47" y="587" width="130" height="35" as="geometry" />
        </mxCell>
        <mxCell id="fEXWOOUnEaRxqD7EzHem-110" value="&lt;div style=&quot;color: rgb(102 , 136 , 204) ; font-family: &amp;#34;consolas&amp;#34; , &amp;#34;courier new&amp;#34; , monospace ; font-size: 15px ; line-height: 20px&quot;&gt;&lt;span style=&quot;color: rgba(0 , 0 , 0 , 0) ; font-family: monospace ; font-size: 0px ; background-color: rgb(248 , 249 , 250)&quot;&gt;%3CmxGraphModel%3E%3Croot%3E%3CmxCell%20id%3D%220%22%2F%3E%3CmxCell%20id%3D%221%22%20parent%3D%220%22%2F%3E%3CmxCell%20id%3D%222%22%20value%3D%22%26lt%3Bdiv%20style%3D%26quot%3Bcolor%3A%20rgb(102%20%2C%20136%20%2C%20204)%20%3B%20font-family%3A%20%26amp%3B%2334%3Bconsolas%26amp%3B%2334%3B%20%2C%20%26amp%3B%2334%3Bcourier%20new%26amp%3B%2334%3B%20%2C%20monospace%20%3B%20font-size%3A%2015px%20%3B%20line-height%3A%2020px%26quot%3B%26gt%3B%26lt%3Bspan%20style%3D%26quot%3Bcolor%3A%20rgb(153%20%2C%20102%20%2C%20184)%20%3B%20font-style%3A%20italic%26quot%3B%26gt%3Bdef%26lt%3B%2Fspan%26gt%3B%26amp%3Bnbsp%3B%26lt%3Bspan%20style%3D%26quot%3Bcolor%3A%20rgb(221%20%2C%20187%20%2C%20136)%20%3B%20font-family%3A%20%26amp%3B%2334%3Bconsolas%26amp%3B%2334%3B%20%2C%20%26amp%3B%2334%3Bcourier%20new%26amp%3B%2334%3B%20%2C%20monospace%26quot%3B%26gt%3Bcheckorders%26lt%3B%2Fspan%26gt%3B%26lt%3B%2Fdiv%26gt%3B%22%20style%3D%22rounded%3D1%3BwhiteSpace%3Dwrap%3Bhtml%3D1%3BlabelBackgroundColor%3D%23FFFFFF%3BfontSize%3D12%3BfontColor%3D%23FF9408%3B%22%20vertex%3D%221%22%20parent%3D%221%22%3E%3CmxGeometry%20x%3D%22105%22%20y%3D%22820%22%20width%3D%22130%22%20height%3D%2250%22%20as%3D%22geometry%22%2F%3E%3C%2FmxCell%3E%3C%2Froot%3E%3C%2FmxGraphModel%3E&lt;/span&gt;&lt;span style=&quot;font-family: &amp;#34;consolas&amp;#34; , &amp;#34;courier new&amp;#34; , monospace ; color: rgb(153 , 102 , 184) ; font-style: italic&quot;&gt;def&lt;/span&gt;&lt;span style=&quot;font-family: &amp;#34;consolas&amp;#34; , &amp;#34;courier new&amp;#34; , monospace&quot;&gt; &lt;/span&gt;&lt;span style=&quot;font-family: &amp;#34;consolas&amp;#34; , &amp;#34;courier new&amp;#34; , monospace ; color: rgb(221 , 187 , 136)&quot;&gt;pacifier&lt;/span&gt;&lt;/div&gt;" style="rounded=1;whiteSpace=wrap;html=1;labelBackgroundColor=#FFFFFF;fontSize=12;fontColor=#FF9408;" parent="WIyWlLk6GJQsqaUBKTNV-1" vertex="1">
          <mxGeometry x="473.47" y="657.5" width="110" height="35" as="geometry" />
        </mxCell>
        <mxCell id="fEXWOOUnEaRxqD7EzHem-112" value="&lt;div style=&quot;color: rgb(102 , 136 , 204) ; font-family: &amp;#34;consolas&amp;#34; , &amp;#34;courier new&amp;#34; , monospace ; font-size: 15px ; line-height: 20px&quot;&gt;&lt;div style=&quot;font-family: &amp;#34;consolas&amp;#34; , &amp;#34;courier new&amp;#34; , monospace ; line-height: 20px&quot;&gt;&lt;span style=&quot;color: rgb(153 , 102 , 184) ; font-style: italic&quot;&gt;def&lt;/span&gt; &lt;span style=&quot;color: rgb(221 , 187 , 136)&quot;&gt;bonus&lt;/span&gt;&lt;/div&gt;&lt;/div&gt;" style="rounded=1;whiteSpace=wrap;html=1;labelBackgroundColor=#FFFFFF;fontSize=12;fontColor=#FF9408;" parent="WIyWlLk6GJQsqaUBKTNV-1" vertex="1">
          <mxGeometry x="473.47" y="707.5" width="93.75" height="35" as="geometry" />
        </mxCell>
        <mxCell id="fEXWOOUnEaRxqD7EzHem-114" value="&lt;div style=&quot;color: rgb(102 , 136 , 204) ; font-family: &amp;#34;consolas&amp;#34; , &amp;#34;courier new&amp;#34; , monospace ; font-size: 15px ; line-height: 20px&quot;&gt;&lt;div style=&quot;font-family: &amp;#34;consolas&amp;#34; , &amp;#34;courier new&amp;#34; , monospace ; line-height: 20px&quot;&gt;&lt;span style=&quot;color: rgb(153 , 102 , 184) ; font-style: italic&quot;&gt;def&lt;/span&gt; &lt;span style=&quot;color: rgb(221 , 187 , 136)&quot;&gt;feed&lt;/span&gt;&lt;/div&gt;&lt;/div&gt;" style="rounded=1;whiteSpace=wrap;html=1;labelBackgroundColor=#FFFFFF;fontSize=12;fontColor=#FF9408;" parent="WIyWlLk6GJQsqaUBKTNV-1" vertex="1">
          <mxGeometry x="473.47" y="757.5" width="93.75" height="35" as="geometry" />
        </mxCell>
        <mxCell id="fEXWOOUnEaRxqD7EzHem-116" value="&lt;div style=&quot;color: rgb(102 , 136 , 204) ; font-family: &amp;#34;consolas&amp;#34; , &amp;#34;courier new&amp;#34; , monospace ; font-size: 15px ; line-height: 20px&quot;&gt;&lt;div style=&quot;font-family: &amp;#34;consolas&amp;#34; , &amp;#34;courier new&amp;#34; , monospace ; line-height: 20px&quot;&gt;&lt;div style=&quot;font-family: &amp;#34;consolas&amp;#34; , &amp;#34;courier new&amp;#34; , monospace ; line-height: 20px&quot;&gt;&lt;span style=&quot;color: rgb(153 , 102 , 184) ; font-style: italic&quot;&gt;def&lt;/span&gt; &lt;span style=&quot;color: rgb(221 , 187 , 136)&quot;&gt;fight&lt;/span&gt;&lt;/div&gt;&lt;/div&gt;&lt;/div&gt;" style="rounded=1;whiteSpace=wrap;html=1;labelBackgroundColor=#FFFFFF;fontSize=12;fontColor=#FF9408;" parent="WIyWlLk6GJQsqaUBKTNV-1" vertex="1">
          <mxGeometry x="473.47" y="807.5" width="93.75" height="35" as="geometry" />
        </mxCell>
        <mxCell id="fEXWOOUnEaRxqD7EzHem-118" value="&lt;div style=&quot;color: rgb(102 , 136 , 204) ; font-family: &amp;#34;consolas&amp;#34; , &amp;#34;courier new&amp;#34; , monospace ; font-size: 15px ; line-height: 20px&quot;&gt;&lt;div style=&quot;font-family: &amp;#34;consolas&amp;#34; , &amp;#34;courier new&amp;#34; , monospace ; line-height: 20px&quot;&gt;&lt;div style=&quot;font-family: &amp;#34;consolas&amp;#34; , &amp;#34;courier new&amp;#34; , monospace ; line-height: 20px&quot;&gt;&lt;div style=&quot;font-family: &amp;#34;consolas&amp;#34; , &amp;#34;courier new&amp;#34; , monospace ; line-height: 20px&quot;&gt;&lt;span style=&quot;color: rgb(153 , 102 , 184) ; font-style: italic&quot;&gt;def&lt;/span&gt; &lt;span style=&quot;color: rgb(221 , 187 , 136)&quot;&gt;move&lt;/span&gt;&lt;/div&gt;&lt;/div&gt;&lt;/div&gt;&lt;/div&gt;" style="rounded=1;whiteSpace=wrap;html=1;labelBackgroundColor=#FFFFFF;fontSize=12;fontColor=#FF9408;" parent="WIyWlLk6GJQsqaUBKTNV-1" vertex="1">
          <mxGeometry x="468.23" y="922.5" width="93.75" height="25" as="geometry" />
        </mxCell>
        <mxCell id="fEXWOOUnEaRxqD7EzHem-126" value="&lt;div style=&quot;font-family: &amp;#34;consolas&amp;#34; , &amp;#34;courier new&amp;#34; , monospace ; font-size: 15px ; line-height: 20px&quot;&gt;&lt;span style=&quot;background-color: rgb(255 , 255 , 255)&quot;&gt;&lt;span style=&quot;color: rgb(153 , 102 , 184) ; font-style: italic&quot;&gt;def&lt;/span&gt;&lt;font color=&quot;#6688cc&quot;&gt;&amp;nbsp;&lt;/font&gt;&lt;font color=&quot;#ddbb88&quot;&gt;check_Energy&lt;/font&gt;&lt;/span&gt;&lt;/div&gt;" style="rounded=1;whiteSpace=wrap;html=1;fontSize=12;glass=0;strokeWidth=1;shadow=0;" parent="WIyWlLk6GJQsqaUBKTNV-1" vertex="1">
          <mxGeometry x="468.23" y="870" width="140.12" height="25" as="geometry" />
        </mxCell>
        <mxCell id="fEXWOOUnEaRxqD7EzHem-134" value="&lt;div style=&quot;color: rgb(102 , 136 , 204) ; font-family: &amp;#34;consolas&amp;#34; , &amp;#34;courier new&amp;#34; , monospace ; font-size: 15px ; line-height: 20px&quot;&gt;&lt;div style=&quot;font-family: &amp;#34;consolas&amp;#34; , &amp;#34;courier new&amp;#34; , monospace ; line-height: 20px&quot;&gt;&lt;span style=&quot;color: rgb(153 , 102 , 184) ; font-style: italic&quot;&gt;def&lt;/span&gt; &lt;span style=&quot;color: rgb(221 , 187 , 136)&quot;&gt;is_in_range&lt;/span&gt;&lt;/div&gt;&lt;/div&gt;" style="rounded=1;whiteSpace=wrap;html=1;labelBackgroundColor=#FFFFFF;fontSize=12;fontColor=#FF9408;" parent="WIyWlLk6GJQsqaUBKTNV-1" vertex="1">
          <mxGeometry x="618.4699999999999" y="657.5" width="130" height="35" as="geometry" />
        </mxCell>
        <mxCell id="fEXWOOUnEaRxqD7EzHem-135" value="&lt;div style=&quot;color: rgb(102 , 136 , 204) ; font-family: &amp;#34;consolas&amp;#34; , &amp;#34;courier new&amp;#34; , monospace ; font-size: 15px ; line-height: 20px&quot;&gt;&lt;div style=&quot;font-family: &amp;#34;consolas&amp;#34; , &amp;#34;courier new&amp;#34; , monospace ; line-height: 20px&quot;&gt;&lt;span style=&quot;color: rgb(153 , 102 , 184) ; font-style: italic&quot;&gt;def&lt;/span&gt; &lt;span style=&quot;color: rgb(221 , 187 , 136)&quot;&gt;is_in_range&lt;/span&gt;&lt;/div&gt;&lt;/div&gt;" style="rounded=1;whiteSpace=wrap;html=1;labelBackgroundColor=#FFFFFF;fontSize=12;fontColor=#FF9408;" parent="WIyWlLk6GJQsqaUBKTNV-1" vertex="1">
          <mxGeometry x="608.3499999999999" y="707.5" width="130" height="35" as="geometry" />
        </mxCell>
        <mxCell id="fEXWOOUnEaRxqD7EzHem-136" value="&lt;div style=&quot;color: rgb(102 , 136 , 204) ; font-family: &amp;#34;consolas&amp;#34; , &amp;#34;courier new&amp;#34; , monospace ; font-size: 15px ; line-height: 20px&quot;&gt;&lt;div style=&quot;font-family: &amp;#34;consolas&amp;#34; , &amp;#34;courier new&amp;#34; , monospace ; line-height: 20px&quot;&gt;&lt;div style=&quot;font-family: &amp;#34;consolas&amp;#34; , &amp;#34;courier new&amp;#34; , monospace ; line-height: 20px&quot;&gt;&lt;span style=&quot;color: rgb(153 , 102 , 184) ; font-style: italic&quot;&gt;def&lt;/span&gt; &lt;span style=&quot;color: rgb(221 , 187 , 136)&quot;&gt;is_entity_at&lt;/span&gt;&lt;/div&gt;&lt;/div&gt;&lt;/div&gt;" style="rounded=1;whiteSpace=wrap;html=1;labelBackgroundColor=#FFFFFF;fontSize=12;fontColor=#FF9408;" parent="WIyWlLk6GJQsqaUBKTNV-1" vertex="1">
          <mxGeometry x="607.4699999999999" y="922.5" width="150" height="25" as="geometry" />
        </mxCell>
        <mxCell id="fEXWOOUnEaRxqD7EzHem-137" value="&lt;div style=&quot;color: rgb(102 , 136 , 204) ; font-family: &amp;#34;consolas&amp;#34; , &amp;#34;courier new&amp;#34; , monospace ; font-size: 15px ; line-height: 20px&quot;&gt;&lt;div style=&quot;font-family: &amp;#34;consolas&amp;#34; , &amp;#34;courier new&amp;#34; , monospace ; line-height: 20px&quot;&gt;&lt;div style=&quot;font-family: &amp;#34;consolas&amp;#34; , &amp;#34;courier new&amp;#34; , monospace ; line-height: 20px&quot;&gt;&lt;div style=&quot;font-family: &amp;#34;consolas&amp;#34; , &amp;#34;courier new&amp;#34; , monospace ; line-height: 20px&quot;&gt;&lt;span style=&quot;color: rgb(153 , 102 , 184) ; font-style: italic&quot;&gt;def&lt;/span&gt; &lt;span style=&quot;color: rgb(221 , 187 , 136)&quot;&gt;being_human&lt;/span&gt;&lt;/div&gt;&lt;/div&gt;&lt;/div&gt;&lt;/div&gt;" style="rounded=1;whiteSpace=wrap;html=1;labelBackgroundColor=#FFFFFF;fontSize=12;fontColor=#FF9408;" parent="WIyWlLk6GJQsqaUBKTNV-1" vertex="1">
          <mxGeometry x="653.4699999999999" y="871.25" width="130" height="22.5" as="geometry" />
        </mxCell>
        <mxCell id="fEXWOOUnEaRxqD7EzHem-138" value="&lt;div style=&quot;color: rgb(102 , 136 , 204) ; font-family: &amp;#34;consolas&amp;#34; , &amp;#34;courier new&amp;#34; , monospace ; font-size: 15px ; line-height: 20px&quot;&gt;&lt;div style=&quot;font-family: &amp;#34;consolas&amp;#34; , &amp;#34;courier new&amp;#34; , monospace ; line-height: 20px&quot;&gt;&lt;div style=&quot;font-family: &amp;#34;consolas&amp;#34; , &amp;#34;courier new&amp;#34; , monospace ; line-height: 20px&quot;&gt;&lt;span style=&quot;color: rgb(153 , 102 , 184) ; font-style: italic&quot;&gt;def&lt;/span&gt; &lt;span style=&quot;color: rgb(221 , 187 , 136)&quot;&gt;is_entity_at&lt;/span&gt;&lt;/div&gt;&lt;/div&gt;&lt;/div&gt;" style="rounded=1;whiteSpace=wrap;html=1;labelBackgroundColor=#FFFFFF;fontSize=12;fontColor=#FF9408;" parent="WIyWlLk6GJQsqaUBKTNV-1" vertex="1">
          <mxGeometry x="608.3499999999999" y="812.5" width="150" height="25" as="geometry" />
        </mxCell>
        <mxCell id="fEXWOOUnEaRxqD7EzHem-139" value="" style="shape=flexArrow;endArrow=classic;startArrow=classic;html=1;rounded=0;fontFamily=Courier New;fontSize=12;fontColor=#DDBB88;exitX=1;exitY=0.5;exitDx=0;exitDy=0;entryX=0;entryY=0.5;entryDx=0;entryDy=0;width=7.058823529411765;startSize=3.3843137254901965;startWidth=8.212226066897347;endWidth=8.212226066897347;endSize=4.965354330708662;" parent="WIyWlLk6GJQsqaUBKTNV-1" source="fEXWOOUnEaRxqD7EzHem-110" target="fEXWOOUnEaRxqD7EzHem-134" edge="1">
          <mxGeometry width="100" height="100" relative="1" as="geometry">
            <mxPoint x="577.7099999999999" y="701.9699999999998" as="sourcePoint" />
            <mxPoint x="627.5899999999999" y="701.97" as="targetPoint" />
          </mxGeometry>
        </mxCell>
        <mxCell id="fEXWOOUnEaRxqD7EzHem-140" value="" style="shape=flexArrow;endArrow=classic;startArrow=classic;html=1;rounded=0;fontFamily=Courier New;fontSize=12;fontColor=#DDBB88;exitX=1;exitY=0.5;exitDx=0;exitDy=0;entryX=0;entryY=0.5;entryDx=0;entryDy=0;width=7.058823529411765;startSize=3.3843137254901965;startWidth=8.212226066897347;endWidth=8.212226066897347;endSize=4.965354330708662;" parent="WIyWlLk6GJQsqaUBKTNV-1" source="fEXWOOUnEaRxqD7EzHem-112" target="fEXWOOUnEaRxqD7EzHem-135" edge="1">
          <mxGeometry width="100" height="100" relative="1" as="geometry">
            <mxPoint x="575.5899999999998" y="751.9699999999998" as="sourcePoint" />
            <mxPoint x="625.4699999999993" y="751.97" as="targetPoint" />
          </mxGeometry>
        </mxCell>
        <mxCell id="fEXWOOUnEaRxqD7EzHem-141" value="" style="shape=flexArrow;endArrow=classic;startArrow=classic;html=1;rounded=0;fontFamily=Courier New;fontSize=12;fontColor=#DDBB88;exitX=1;exitY=0.5;exitDx=0;exitDy=0;entryX=0;entryY=0.5;entryDx=0;entryDy=0;width=7.058823529411765;startSize=3.3843137254901965;startWidth=8.212226066897347;endWidth=8.212226066897347;endSize=4.965354330708662;" parent="WIyWlLk6GJQsqaUBKTNV-1" source="fEXWOOUnEaRxqD7EzHem-116" target="fEXWOOUnEaRxqD7EzHem-138" edge="1">
          <mxGeometry width="100" height="100" relative="1" as="geometry">
            <mxPoint x="575.3499999999998" y="854.7399999999998" as="sourcePoint" />
            <mxPoint x="625.2299999999993" y="854.74" as="targetPoint" />
          </mxGeometry>
        </mxCell>
        <mxCell id="fEXWOOUnEaRxqD7EzHem-142" value="" style="shape=flexArrow;endArrow=classic;startArrow=classic;html=1;rounded=0;fontFamily=Courier New;fontSize=12;fontColor=#DDBB88;exitX=1;exitY=0.5;exitDx=0;exitDy=0;entryX=0;entryY=0.5;entryDx=0;entryDy=0;width=7.058823529411765;startSize=3.3843137254901965;startWidth=8.212226066897347;endWidth=8.212226066897347;endSize=4.965354330708662;" parent="WIyWlLk6GJQsqaUBKTNV-1" source="fEXWOOUnEaRxqD7EzHem-126" target="fEXWOOUnEaRxqD7EzHem-137" edge="1">
          <mxGeometry width="100" height="100" relative="1" as="geometry">
            <mxPoint x="639.9699999999999" y="882.2899999999997" as="sourcePoint" />
            <mxPoint x="689.8499999999991" y="882.29" as="targetPoint" />
          </mxGeometry>
        </mxCell>
        <mxCell id="fEXWOOUnEaRxqD7EzHem-143" value="&lt;div style=&quot;color: rgb(102 , 136 , 204) ; font-family: &amp;#34;consolas&amp;#34; , &amp;#34;courier new&amp;#34; , monospace ; font-size: 15px ; line-height: 20px&quot;&gt;&lt;div style=&quot;font-family: &amp;#34;consolas&amp;#34; , &amp;#34;courier new&amp;#34; , monospace ; line-height: 20px&quot;&gt;&lt;div style=&quot;font-family: &amp;#34;consolas&amp;#34; , &amp;#34;courier new&amp;#34; , monospace ; line-height: 20px&quot;&gt;&lt;span style=&quot;color: rgb(153 , 102 , 184) ; font-style: italic&quot;&gt;def&lt;/span&gt; &lt;span style=&quot;color: rgb(221 , 187 , 136)&quot;&gt;is_entity_at&lt;/span&gt;&lt;/div&gt;&lt;/div&gt;&lt;/div&gt;" style="rounded=1;whiteSpace=wrap;html=1;labelBackgroundColor=#FFFFFF;fontSize=12;fontColor=#FF9408;" parent="WIyWlLk6GJQsqaUBKTNV-1" vertex="1">
          <mxGeometry x="612.9699999999999" y="762.5" width="150" height="25" as="geometry" />
        </mxCell>
        <mxCell id="fEXWOOUnEaRxqD7EzHem-146" value="" style="shape=flexArrow;endArrow=classic;startArrow=classic;html=1;rounded=0;fontFamily=Courier New;fontSize=12;fontColor=#DDBB88;exitX=0.987;exitY=0.507;exitDx=0;exitDy=0;entryX=0;entryY=0.5;entryDx=0;entryDy=0;width=7.058823529411765;startSize=3.3843137254901965;startWidth=8.212226066897347;endWidth=8.212226066897347;endSize=4.965354330708662;exitPerimeter=0;" parent="WIyWlLk6GJQsqaUBKTNV-1" source="fEXWOOUnEaRxqD7EzHem-114" target="fEXWOOUnEaRxqD7EzHem-143" edge="1">
          <mxGeometry width="100" height="100" relative="1" as="geometry">
            <mxPoint x="557.72" y="804.87" as="sourcePoint" />
            <mxPoint x="597.7199999999999" y="804.87" as="targetPoint" />
          </mxGeometry>
        </mxCell>
        <mxCell id="fEXWOOUnEaRxqD7EzHem-154" value="" style="shape=flexArrow;endArrow=classic;startArrow=classic;html=1;rounded=0;fontFamily=Courier New;fontSize=12;fontColor=#DDBB88;exitX=1;exitY=0.5;exitDx=0;exitDy=0;entryX=0;entryY=0.5;entryDx=0;entryDy=0;width=7.058823529411765;startSize=3.3843137254901965;startWidth=8.212226066897347;endWidth=8.212226066897347;endSize=4.965354330708662;" parent="WIyWlLk6GJQsqaUBKTNV-1" source="fEXWOOUnEaRxqD7EzHem-118" target="fEXWOOUnEaRxqD7EzHem-136" edge="1">
          <mxGeometry width="100" height="100" relative="1" as="geometry">
            <mxPoint x="575.9599999999999" y="934.79" as="sourcePoint" />
            <mxPoint x="617.0899999999999" y="934.79" as="targetPoint" />
          </mxGeometry>
        </mxCell>
        <mxCell id="fEXWOOUnEaRxqD7EzHem-184" value="&lt;b&gt;&lt;font style=&quot;font-size: 14px&quot;&gt;Remote&lt;/font&gt;&lt;/b&gt;" style="text;html=1;align=center;verticalAlign=middle;resizable=0;points=[];autosize=1;strokeColor=none;fillColor=none;fontSize=12;fontFamily=Courier New;fontColor=#DDBB88;" parent="WIyWlLk6GJQsqaUBKTNV-1" vertex="1">
          <mxGeometry x="648.35" y="80" width="70" height="20" as="geometry" />
        </mxCell>
        <mxCell id="fEXWOOUnEaRxqD7EzHem-185" value="&lt;b&gt;LOCAL&lt;/b&gt;" style="text;html=1;align=center;verticalAlign=middle;resizable=0;points=[];autosize=1;strokeColor=none;fillColor=none;fontSize=14;fontFamily=Courier New;fontColor=#DDBB88;" parent="WIyWlLk6GJQsqaUBKTNV-1" vertex="1">
          <mxGeometry x="120.97000000000003" y="145" width="60" height="20" as="geometry" />
        </mxCell>
        <mxCell id="T2BgYPuH4G6eyfcxAXqx-0" value="&lt;div style=&quot;color: rgb(102 , 136 , 204) ; font-family: &amp;#34;consolas&amp;#34; , &amp;#34;courier new&amp;#34; , monospace ; font-size: 15px ; line-height: 20px&quot;&gt;&lt;span style=&quot;background-color: rgb(255 , 255 , 255)&quot;&gt;&lt;span style=&quot;color: rgb(153 , 102 , 184) ; font-style: italic&quot;&gt;def&lt;/span&gt;&amp;nbsp;&lt;span style=&quot;color: rgb(221 , 187 , 136)&quot;&gt;game_settings&lt;/span&gt;&lt;/span&gt;&lt;/div&gt;" style="rounded=1;whiteSpace=wrap;html=1;fontSize=12;glass=0;strokeWidth=1;shadow=0;" parent="WIyWlLk6GJQsqaUBKTNV-1" vertex="1">
          <mxGeometry x="180.97000000000003" y="180" width="150" height="30" as="geometry" />
        </mxCell>
        <mxCell id="T2BgYPuH4G6eyfcxAXqx-1" value="&lt;div style=&quot;color: rgb(102 , 136 , 204) ; font-family: &amp;#34;consolas&amp;#34; , &amp;#34;courier new&amp;#34; , monospace ; font-size: 15px ; line-height: 20px&quot;&gt;&lt;span style=&quot;background-color: rgb(255 , 255 , 255)&quot;&gt;&lt;span style=&quot;color: rgb(153 , 102 , 184) ; font-style: italic&quot;&gt;def&lt;/span&gt; &lt;span style=&quot;color: rgb(221 , 187 , 136)&quot;&gt;data_import&lt;/span&gt;&lt;/span&gt;&lt;/div&gt;" style="rounded=1;whiteSpace=wrap;html=1;fontSize=12;glass=0;strokeWidth=1;shadow=0;" parent="WIyWlLk6GJQsqaUBKTNV-1" vertex="1">
          <mxGeometry x="190.97000000000003" y="220" width="130" height="30" as="geometry" />
        </mxCell>
        <mxCell id="PsKFiLC34W7KuLc8Axxn-3" value="&lt;i style=&quot;color: rgb(153 , 102 , 184) ; font-family: &amp;#34;consolas&amp;#34; , &amp;#34;courier new&amp;#34; , monospace ; font-size: 15px&quot;&gt;settings()&lt;/i&gt;" style="rhombus;whiteSpace=wrap;html=1;" vertex="1" parent="WIyWlLk6GJQsqaUBKTNV-1">
          <mxGeometry x="302.14" y="110" width="190.65" height="60" as="geometry" />
        </mxCell>
        <mxCell id="PsKFiLC34W7KuLc8Axxn-0" value="&lt;div style=&quot;line-height: 20px&quot;&gt;&lt;font color=&quot;#9966b8&quot; face=&quot;consolas, courier new, monospace&quot;&gt;&lt;span style=&quot;font-size: 15px ; background-color: rgb(255 , 255 , 255)&quot;&gt;&lt;i&gt;welcome_screen()&lt;/i&gt;&lt;/span&gt;&lt;/font&gt;&lt;br&gt;&lt;/div&gt;" style="rounded=1;whiteSpace=wrap;html=1;fontSize=12;glass=0;strokeWidth=1;shadow=0;" vertex="1" parent="WIyWlLk6GJQsqaUBKTNV-1">
          <mxGeometry x="320.53000000000003" y="60" width="153.88" height="30" as="geometry" />
        </mxCell>
        <mxCell id="PsKFiLC34W7KuLc8Axxn-8" value="" style="edgeStyle=orthogonalEdgeStyle;rounded=0;orthogonalLoop=1;jettySize=auto;html=1;endArrow=none;" edge="1" parent="WIyWlLk6GJQsqaUBKTNV-1" source="fEXWOOUnEaRxqD7EzHem-0" target="PsKFiLC34W7KuLc8Axxn-0">
          <mxGeometry relative="1" as="geometry">
            <mxPoint x="397.52941176470586" y="45" as="sourcePoint" />
            <mxPoint x="397.41176470588243" y="110" as="targetPoint" />
          </mxGeometry>
        </mxCell>
        <mxCell id="PsKFiLC34W7KuLc8Axxn-16" style="edgeStyle=orthogonalEdgeStyle;rounded=0;orthogonalLoop=1;jettySize=auto;html=1;exitX=0.5;exitY=1;exitDx=0;exitDy=0;entryX=0.5;entryY=0;entryDx=0;entryDy=0;strokeColor=#17060F;strokeWidth=1;" edge="1" parent="WIyWlLk6GJQsqaUBKTNV-1" source="PsKFiLC34W7KuLc8Axxn-7" target="PsKFiLC34W7KuLc8Axxn-10">
          <mxGeometry relative="1" as="geometry" />
        </mxCell>
        <mxCell id="PsKFiLC34W7KuLc8Axxn-7" value="&lt;div style=&quot;line-height: 20px&quot;&gt;&lt;font color=&quot;#9966b8&quot; face=&quot;consolas, courier new, monospace&quot;&gt;&lt;span style=&quot;font-size: 15px&quot;&gt;&lt;i&gt;boardgame_manager()&lt;/i&gt;&lt;/span&gt;&lt;/font&gt;&lt;br&gt;&lt;/div&gt;" style="rounded=1;whiteSpace=wrap;html=1;fontSize=12;glass=0;strokeWidth=1;shadow=0;" vertex="1" parent="WIyWlLk6GJQsqaUBKTNV-1">
          <mxGeometry x="324.93" y="360" width="182.71" height="30" as="geometry" />
        </mxCell>
        <mxCell id="PsKFiLC34W7KuLc8Axxn-9" value="" style="edgeStyle=orthogonalEdgeStyle;rounded=0;orthogonalLoop=1;jettySize=auto;html=1;exitX=0.5;exitY=1;exitDx=0;exitDy=0;entryX=0.525;entryY=-0.012;entryDx=0;entryDy=0;entryPerimeter=0;fontFamily=Courier New;fontSize=12;fontColor=#DDBB88;endArrow=block;endFill=1;" edge="1" parent="WIyWlLk6GJQsqaUBKTNV-1" source="fEXWOOUnEaRxqD7EzHem-63" target="PsKFiLC34W7KuLc8Axxn-7">
          <mxGeometry relative="1" as="geometry">
            <mxPoint x="455.56" y="390" as="sourcePoint" />
            <mxPoint x="507.91000000000014" y="529.52" as="targetPoint" />
          </mxGeometry>
        </mxCell>
        <mxCell id="PsKFiLC34W7KuLc8Axxn-17" style="edgeStyle=orthogonalEdgeStyle;rounded=0;orthogonalLoop=1;jettySize=auto;html=1;exitX=0.5;exitY=1;exitDx=0;exitDy=0;entryX=0.529;entryY=-0.044;entryDx=0;entryDy=0;entryPerimeter=0;strokeColor=#17060F;strokeWidth=1;" edge="1" parent="WIyWlLk6GJQsqaUBKTNV-1" source="PsKFiLC34W7KuLc8Axxn-10" target="fEXWOOUnEaRxqD7EzHem-87">
          <mxGeometry relative="1" as="geometry" />
        </mxCell>
        <mxCell id="PsKFiLC34W7KuLc8Axxn-19" style="edgeStyle=orthogonalEdgeStyle;rounded=0;orthogonalLoop=1;jettySize=auto;html=1;exitX=1;exitY=0.5;exitDx=0;exitDy=0;entryX=0;entryY=0.5;entryDx=0;entryDy=0;endArrow=block;endFill=1;strokeColor=#17060F;strokeWidth=1;startArrow=block;startFill=1;dashed=1;" edge="1" parent="WIyWlLk6GJQsqaUBKTNV-1" source="PsKFiLC34W7KuLc8Axxn-10" target="PsKFiLC34W7KuLc8Axxn-18">
          <mxGeometry relative="1" as="geometry" />
        </mxCell>
        <mxCell id="PsKFiLC34W7KuLc8Axxn-10" value="&lt;div style=&quot;line-height: 20px&quot;&gt;&lt;font color=&quot;#9966b8&quot; face=&quot;consolas, courier new, monospace&quot;&gt;&lt;span style=&quot;font-size: 15px&quot;&gt;&lt;i&gt;get_orders()&lt;/i&gt;&lt;/span&gt;&lt;/font&gt;&lt;br&gt;&lt;/div&gt;" style="rounded=1;whiteSpace=wrap;html=1;fontSize=12;glass=0;strokeWidth=1;shadow=0;" vertex="1" parent="WIyWlLk6GJQsqaUBKTNV-1">
          <mxGeometry x="363.32000000000005" y="410" width="113.89" height="30" as="geometry" />
        </mxCell>
        <mxCell id="PsKFiLC34W7KuLc8Axxn-18" value="get_remote_orders" style="ellipse;whiteSpace=wrap;html=1;" vertex="1" parent="WIyWlLk6GJQsqaUBKTNV-1">
          <mxGeometry x="530" y="410" width="140" height="30" as="geometry" />
        </mxCell>
      </root>
    </mxGraphModel>
  </diagram>
</mxfile>
